<svg width="22" height="24" viewBox="0 0 22 24" fill="none" xmlns="http://www.w3.org/2000/svg">
<path d="M11.5254 0.0198779C12.8354 -0.00012207 14.1354 0.00987793 15.4354 -0.00012207C15.5154 1.52988 16.0654 3.08988 17.1854 4.16988C18.3054 5.27988 19.8854 5.78988 21.4254 5.95988V9.98988C19.9854 9.93988 18.5354 9.63988 17.2254 9.01988C16.6554 8.75988 16.1254 8.42988 15.6054 8.08988C15.5954 11.0099 15.6154 13.9299 15.5854 16.8399C15.5054 18.2399 15.0454 19.6299 14.2354 20.7799C12.9254 22.6999 10.6554 23.9499 8.32536 23.9899C6.89536 24.0699 5.46536 23.6799 4.24536 22.9599C2.22536 21.7699 0.805365 19.5899 0.595365 17.2499C0.575365 16.7499 0.565365 16.2499 0.585365 15.7599C0.765365 13.8599 1.70536 12.0399 3.16536 10.7999C4.82536 9.35988 7.14536 8.66988 9.31536 9.07988C9.33536 10.5599 9.27536 12.0399 9.27536 13.5199C8.28536 13.1999 7.12536 13.2899 6.25536 13.8899C5.62536 14.2999 5.14536 14.9299 4.89536 15.6399C4.68536 16.1499 4.74536 16.7099 4.75536 17.2499C4.99536 18.8899 6.57537 20.2699 8.25536 20.1199C9.37537 20.1099 10.4454 19.4599 11.0254 18.5099C11.2154 18.1799 11.4254 17.8399 11.4354 17.4499C11.5354 15.6599 11.4954 13.8799 11.5054 12.0899C11.5154 8.05988 11.4954 4.03988 11.5254 0.0198779Z" fill="#C0160A"/>
</svg>
